# xmcd
#
# Track frame offsets: 
#        150
#        12567
#        26610
#        40197
#        52650
#        65420
#        80092
#        91817
#        105625
#        117054
#        131622
#        145737
#        158209
#        189220
#        213484
#
# Disc length: 3026 seconds
#
# Revision: 4
# Processed by: cddbd v1.5.2PL0 Copyright (c) Steve Scherf et al.
# Submitted via: ExactAudioCopy v0.99pb5
#
DISCID=c00bd00f
DTITLE=John Lee Hooker - His Best Chess Sides  The Chess 50th Annivers
DTITLE=ary Collection 
DYEAR=1997
DGENRE=Blues
TTITLE0=Mad Man Blues
TTITLE1=Louise
TTITLE2=Ground Hog Blues
TTITLE3=High Priced Woman
TTITLE4=Leave My Wife Alone
TTITLE5=Sugar Mama
TTITLE6=Walkin' the Boogie (alternate)
TTITLE7=Bluebird
TTITLE8=Please Don't Go
TTITLE9=Blues for Big Town
TTITLE10=Worried Life Blues
TTITLE11=I'm in the Mood
TTITLE12=Let's Go Out Tonight
TTITLE13=The Waterfront
TTITLE14=One Bourbon, One Scotch and One Beer
EXTD=
EXTT0=
EXTT1=
EXTT2=
EXTT3=
EXTT4=
EXTT5=
EXTT6=
EXTT7=
EXTT8=
EXTT9=
EXTT10=
EXTT11=
EXTT12=
EXTT13=
EXTT14=
PLAYORDER=
